<?xml version="1.0" encoding="utf-8"?>
<!-- Generator: Adobe Illustrator 22.1.0, SVG Export Plug-In . SVG Version: 6.00 Build 0)  -->
<svg version="1.1" id="Layer_1" xmlns="http://www.w3.org/2000/svg" xmlns:xlink="http://www.w3.org/1999/xlink" x="0px" y="0px"
	 viewBox="0 0 154.9 46.1" style="enable-background:new 0 0 154.9 46.1;" xml:space="preserve">
<style type="text/css">
	.st0{clip-path:url(#SVGID_2_);}
	.st1{fill:url(#SVGID_3_);}
</style>
<g id="work">
	<g id="Layer_3">
		<g>
			<g>
				<g>
					<defs>
						<polygon id="SVGID_1_" points="21.7,29 19.2,32.5 33.4,36.1 40.1,25.8 39.5,16.8 24,4.6 4,4.8 -3.8,26.3 8.7,36.6 15.4,33.5 
							20.8,25.9 22.6,27.7 						"/>
					</defs>
					<clipPath id="SVGID_2_">
						<use xlink:href="#SVGID_1_"  style="overflow:visible;"/>
					</clipPath>
					<g class="st0">
						
							<linearGradient id="SVGID_3_" gradientUnits="userSpaceOnUse" x1="19.4372" y1="40.5343" x2="19.4372" y2="16.1248" gradientTransform="matrix(1 0 0 -1 0 48)">
							<stop  offset="0" style="stop-color:#4BF7CF"/>
							<stop  offset="1" style="stop-color:#248DF6"/>
						</linearGradient>
						<path class="st1" d="M29.4,31.9H20c-0.7,0-1.3-0.6-1.3-1.3c0-0.7,0.6-1.3,1.3-1.3h9.4c1.9,0,3.6-0.9,4.7-2.3
							c0.2-0.2,0.3-0.5,0.5-0.8c0.6-1.1,0.8-2.3,0.7-3.4c-0.3-2.2-2.1-4.2-4.6-5c-0.4-0.1-0.8-0.2-1.2-0.2c-2.5,0-5.5,0.6-10.1,8.9
							l0,0c-1.5,2.6-3.7,4.5-6.4,5.1c-0.8,0.2-1.6,0.3-2.3,0.3c-2.8,0-5.5-1.2-7.3-3.2l0,0c-0.8-0.8-3.2-3.9-2.1-8.7
							c0.5-2.1,1.7-3.8,3.5-5c1.5-1,3.3-1.5,5.3-1.7c0.8-1.5,2.1-2.9,3.6-3.9c1.8-1.2,3.9-1.8,5.8-1.9c2.2,0,4.2,0.6,6,1.9
							c1.8,1.3,3,3.1,3.7,5.1c0,0.1,0,0.1,0,0.2c0.1,0,0.2,0,0.3,0c0.7,0,1.4,0.1,2,0.4c1.7,0.6,3.2,1.5,4.3,2.8
							c1.2,1.3,1.9,2.8,2.1,4.4c0.2,1.2,0.1,3-1,5.1c-0.2,0.4-0.5,0.8-0.7,1.1C34.6,30.6,32.1,31.9,29.4,31.9z M19.6,10.2
							C19.5,10.2,19.5,10.2,19.6,10.2c-3.1,0-6.3,2.2-7.4,4.9l-0.3,0.8l-0.9,0c-3.8,0.1-6.5,1.8-7.1,4.6c-0.8,3.5,1.1,5.8,1.5,6.2
							l0,0c1.7,1.9,4.5,2.8,7,2.1c1.9-0.5,3.6-1.8,4.7-3.8l0-0.1c2.2-4,4.4-6.8,6.5-8.4c1-0.7,2-1.2,3-1.6
							C25.5,12.2,22.6,10.2,19.6,10.2z"/>
					</g>
				</g>
			</g>
			<g>
				<g>
					<path d="M51.4,29.4c-4.1,0-7-3.2-7-7.4s3-7.4,7-7.4c2.1,0,3.8,0.7,5.1,2l-1.7,2c-0.9-0.9-2-1.5-3.4-1.5c-2.7,0-4.4,2.6-4.4,5
						c0,2.4,1.7,5,4.4,5c1.6,0,2.9-0.8,3.7-1.9l1.9,1.8C55.7,28.5,53.8,29.4,51.4,29.4z"/>
				</g>
				<g>
					<path d="M60.5,13.9v15.3H58V13.9H60.5z"/>
				</g>
				<g>
					<path d="M61.9,24.1c0-2.8,2-5.4,5.4-5.4c3.4,0,5.4,2.6,5.4,5.4c0,2.8-2,5.4-5.4,5.4C63.9,29.5,61.9,26.9,61.9,24.1z M64.4,24.1
						c0,1.9,1.2,3.1,2.9,3.1s2.9-1.2,2.9-3.1c0-1.9-1.2-3.1-2.9-3.1C65.7,21,64.4,22.2,64.4,24.1z"/>
				</g>
				<g>
					<path d="M74,25v-6h2.5v5.7c0,1.3,0.6,2.5,2.1,2.5c1.5,0,2.1-1.2,2.1-2.5V19h2.5v6c0,2.2-1.6,4.4-4.6,4.4
						C75.6,29.4,74,27.2,74,25z"/>
				</g>
				<g>
					<path d="M92.7,28.2c-0.7,0.8-1.8,1.2-3.2,1.2c-2.8,0-4.9-2.1-4.9-5.3s2.1-5.4,4.9-5.4c1.3,0,2.5,0.4,3.2,1.2v-6.1h2.5v15.3
						h-2.5V28.2z M92.8,24.1c0-2-1.3-3.1-2.8-3.1c-1.6,0-3,1.1-3,3.1c0,2,1.3,3.1,3,3.1C91.5,27.2,92.8,26,92.8,24.1z"/>
				</g>
				<g>
					<path d="M97,15.2c0-0.9,0.7-1.5,1.5-1.5c0.8,0,1.5,0.7,1.5,1.5c0,0.8-0.7,1.5-1.5,1.5C97.6,16.8,97,16.1,97,15.2z M99.8,19
						v10.2h-2.5V19H99.8z"/>
				</g>
				<g>
					<path d="M104.3,19V20c0.5-0.7,1.4-1.3,3.1-1.3c2.6,0,4,1.8,4,4.4v6h-2.5v-5.7c0-1.6-0.8-2.5-2.3-2.5c-1.3,0-2.3,0.9-2.3,2.5
						v5.7h-2.5V19H104.3z"/>
				</g>
				<g>
					<path d="M112.8,23.6c0-3,2.1-4.9,4.7-4.9c1.3,0,2.3,0.4,3,1.1V19h2.4v9.6c0,2.4-1.7,4.6-4.9,4.6c-3,0-4.7-1.9-4.9-4h2.5
						c0.3,1,1,1.7,2.5,1.7c1.7,0,2.6-1.2,2.6-2.6v-0.9c-0.7,0.7-1.8,1.1-3.1,1.1C114.9,28.5,112.8,26.6,112.8,23.6z M115.2,23.6
						c0,1.7,1.2,2.7,2.7,2.7c1.4,0,2.7-1,2.7-2.7c0-1.7-1.3-2.8-2.7-2.8C116.4,20.9,115.2,21.9,115.2,23.6z"/>
				</g>
				<g>
					<path d="M128.4,19h2.6v2h-2.6v8.2h-2.5V21h-2.2l4.1-5h0.6V19L128.4,19z"/>
				</g>
				<g>
					<path d="M131.1,24.1c0-2.8,2-5.4,5.4-5.4s5.4,2.6,5.4,5.4c0,2.8-2,5.4-5.4,5.4S131.1,26.9,131.1,24.1z M133.6,24.1
						c0,1.9,1.2,3.1,2.9,3.1c1.6,0,2.9-1.2,2.9-3.1c0-1.9-1.2-3.1-2.9-3.1C134.9,21,133.6,22.2,133.6,24.1z"/>
				</g>
				<g>
					<path d="M145.9,19V20c0.5-0.7,1.4-1.3,3.1-1.3c2.6,0,4,1.8,4,4.4v6h-2.5v-5.7c0-1.6-0.8-2.5-2.3-2.5c-1.3,0-2.3,0.9-2.3,2.5
						v5.7h-2.5V19H145.9z"/>
				</g>
			</g>
		</g>
	</g>
</g>
</svg>
