<?xml version="1.0" encoding="utf-8"?>
<!-- Generator: Adobe Illustrator 22.1.0, SVG Export Plug-In . SVG Version: 6.00 Build 0)  -->
<svg version="1.1" xmlns="http://www.w3.org/2000/svg" xmlns:xlink="http://www.w3.org/1999/xlink" x="0px" y="0px"
	 viewBox="0 0 2000 500" style="enable-background:new 0 0 2000 500;" xml:space="preserve">
<style type="text/css">
	.st0{clip-path:url(#SVGID_2_);fill:none;stroke:url(#SVGID_3_);stroke-width:35;stroke-linecap:round;stroke-miterlimit:10;}
	.st1{clip-path:url(#SVGID_5_);fill:none;stroke:url(#SVGID_6_);stroke-width:35;stroke-linecap:round;stroke-miterlimit:10;}
</style>
<g id="Background">
</g>
<g id="work">
	<g id="Logo">
	</g>
	<g id="Layer_3">
		<g>
			<g>
				<defs>
					<polygon id="SVGID_4_" points="286.7,359.2 254.8,404.6 439.4,450.6 526.5,316.9 517.9,200.3 316.7,42 57.8,44.5 -44,324.2 
						118,458 205.1,417.5 275,319.3 299.5,342.6 					"/>
				</defs>
				<clipPath id="SVGID_2_">
					<use xlink:href="#SVGID_4_"  style="overflow:visible;"/>
				</clipPath>
				<linearGradient id="SVGID_3_" gradientUnits="userSpaceOnUse" x1="257.863" y1="79.1293" x2="257.863" y2="396.3269">
					<stop  offset="0" style="stop-color:#4BF7CF"/>
					<stop  offset="1" style="stop-color:#248DF6"/>
				</linearGradient>
				<path class="st0" d="M367.6,176.4c-15.5-47.9-60.1-80.2-109.2-79.7c-45.6,0.5-94.4,31.6-111.6,74.8
					c-55.2,1.2-98.5,27-109.2,73.6c-13.5,58.9,21.6,95,23.3,96.9c27.5,31.1,70.1,42.6,108,33.1c48-12,69-52.8,72.4-58.9
					c60.1-108,103.6-125.7,147.2-125.1c9,0.1,16.3,2.1,20.9,3.7c38.7,13.3,66.5,44,71.2,79.7c3.6,27.4-7.5,48.7-11,55.2
					c-2.4,4.4-5,8.5-7.8,12.2c-17.7,23.5-45.7,36.9-75.1,36.9h-122"/>
			</g>
			<g>
				<path d="M673.6,364.3c-52.8,0-91.5-41.7-91.5-96.6c0-54.9,38.6-96.6,91.5-96.6c26.8,0,49.5,9,66.7,25.8l-22.7,25.5
					c-11.1-11.1-26-19.3-44.1-19.3c-35,0-57.5,33.8-57.5,64.7c0,30.9,22.4,64.7,57.5,64.7c20.6,0,37.4-10.3,48.4-24.2l25.3,23.4
					C729.5,352.4,703.7,364.3,673.6,364.3z"/>
				<path d="M791.6,162.8v198.4h-32.7V162.8H791.6z"/>
				<path d="M809.9,294.9c0-36.3,25.5-69.6,70.3-69.6c44.8,0,70.3,33.2,70.3,69.6c0,36.6-25.5,69.8-70.3,69.8
					C835.4,364.8,809.9,331.5,809.9,294.9z M842.6,294.9c0,24.7,16.2,40.7,37.6,40.7c21.4,0,37.6-16,37.6-40.7
					c0-24.5-16.2-40.5-37.6-40.5C858.8,254.5,842.6,270.5,842.6,294.9z"/>
				<path d="M967.3,306.5v-78.1h32.7v74.5c0,16.5,8,32.2,27.3,32.2c19.3,0,27.3-15.7,27.3-32.2v-74.5h32.7v78.1
					c0,28.9-20.4,57.7-60,57.7C987.7,364.3,967.3,335.4,967.3,306.5z"/>
				<path d="M1209.8,348.5c-9.5,10.3-24,15.7-41.5,15.7c-36.1,0-63.9-27.3-63.9-69.3c0-42,27.8-69.6,63.9-69.6
					c17.5,0,32,5.7,41.5,16v-78.6h32.7v198.4h-32.7V348.5z M1211.3,294.9c0-25.8-17-40.5-35.8-40.5c-21.4,0-38.4,14.7-38.4,40.5
					c0,25.5,17,40.2,38.4,40.2C1194.3,335.1,1211.3,320.5,1211.3,294.9z"/>
				<path d="M1264.9,180c0-11.1,9-20.1,20.1-20.1c10.8,0,20.1,9,19.8,20.1c-0.3,10.8-9,19.8-19.8,19.8
					C1273.9,199.9,1264.9,190.9,1264.9,180z M1301.5,228.5v132.7h-32.7V228.5H1301.5z"/>
				<path d="M1360.5,228.5v13.7c6.2-8.8,18.8-16.7,40.2-16.7c33.8,0,52.3,23.7,52.3,57.7v78.1h-32.7v-74.5c0-21.1-10-32.2-29.4-32.2
					c-17.5,0-30.4,11.1-30.4,32.2v74.5h-32.7V228.5H1360.5z"/>
				<path d="M1470.5,289.3c0-38.9,27.6-63.6,60.8-63.6c16.5,0,30.1,5.2,39.4,14.4v-11.6h31.2v124.2c0,30.9-22.4,60.3-64.2,60.3
					c-38.9,0-61.3-25-64.2-51.8h32c3.3,12.4,13.1,22.7,32.2,22.7c22.2,0,33.5-15.5,33.5-33.8v-11.9c-9.3,9.5-23.4,14.4-39.9,14.4
					C1498.1,352.7,1470.5,328.2,1470.5,289.3z M1501.7,289.3c0,21.9,15.2,35.3,35.6,35.3c17.8,0,34.5-13.4,34.5-35.3
					c0-22.2-16.7-35.8-34.5-35.8C1516.9,253.5,1501.7,267.1,1501.7,289.3z"/>
				<path d="M1673.8,228.5h33.2v26.3h-33.2v106.4h-32.7V254.8H1613l53.1-65.4h7.7V228.5z"/>
				<path d="M1708.8,294.9c0-36.3,25.5-69.6,70.3-69.6s70.3,33.2,70.3,69.6c0,36.6-25.5,69.8-70.3,69.8S1708.8,331.5,1708.8,294.9z
					 M1741.5,294.9c0,24.7,16.2,40.7,37.6,40.7c21.4,0,37.6-16,37.6-40.7c0-24.5-16.2-40.5-37.6-40.5
					C1757.8,254.5,1741.5,270.5,1741.5,294.9z"/>
				<path d="M1900.5,228.5v13.7c6.2-8.8,18.8-16.7,40.2-16.7c33.8,0,52.3,23.7,52.3,57.7v78.1h-32.7v-74.5c0-21.1-10-32.2-29.4-32.2
					c-17.5,0-30.4,11.1-30.4,32.2v74.5h-32.7V228.5H1900.5z"/>
			</g>
		</g>
	</g>
</g>
<g id="guides">
</g>
</svg>
