<svg xmlns="http://www.w3.org/2000/svg" xmlns:xlink="http://www.w3.org/1999/xlink" viewBox="0 0 509.66 87.85"><defs><style>.cls-1,.cls-3{fill:none;}.cls-2{clip-path:url(#clip-path);}.cls-3{stroke-linecap:round;stroke-miterlimit:10;stroke-width:14px;stroke:url(#linear-gradient);}</style><clipPath id="clip-path" transform="translate(-64.83 -87.61)"><polygon id="SVGID" class="cls-1" points="138.25 159.75 128.09 172.89 183.66 186.63 205.99 152.63 203.78 122.99 152.21 82.75 78.29 83.44 59.75 154.5 101.26 188.5 109.67 179 130.17 153.5 144.67 153.17 138.25 159.75"/></clipPath><linearGradient id="linear-gradient" x1="64.83" y1="129.88" x2="191.39" y2="129.88" gradientUnits="userSpaceOnUse"><stop offset="0" stop-color="#4bf7cf"/><stop offset="1" stop-color="#248df6"/></linearGradient></defs><title>new gradient new thickness and spacing increased</title><g id="spacing_increased" data-name="spacing increased"><g id="org"><path d="M233.4,162.8c-13.74,0-23.79-10.86-23.79-25.13s10-25.13,23.79-25.13a24.19,24.19,0,0,1,17.35,6.7l-5.9,6.63a16.12,16.12,0,0,0-11.46-5c-9.11,0-14.94,8.78-14.94,16.82s5.83,16.82,14.94,16.82a16,16,0,0,0,12.6-6.3l6.57,6.1A24.55,24.55,0,0,1,233.4,162.8Z" transform="translate(-64.83 -87.61)"/><path d="M263.88,110.41V162h-8.51V110.41Z" transform="translate(-64.83 -87.61)"/><path d="M268.44,144.78c0-9.45,6.63-18.09,18.29-18.09S305,135.33,305,144.78s-6.63,18.16-18.29,18.16S268.44,154.29,268.44,144.78Zm8.51,0c0,6.43,4.22,10.59,9.78,10.59s9.78-4.15,9.78-10.59-4.22-10.52-9.78-10.52S276.95,138.42,276.95,144.78Z" transform="translate(-64.83 -87.61)"/><path d="M309.17,147.8v-20.3h8.51v19.36c0,4.29,2.08,8.38,7.1,8.38s7.1-4.09,7.1-8.37V127.49h8.51v20.3c0,7.5-5.29,15-15.61,15S309.17,155.3,309.17,147.8Z" transform="translate(-64.83 -87.61)"/><path d="M372,158.72c-2.48,2.68-6.23,4.09-10.79,4.09-9.38,0-16.62-7.1-16.62-18s7.24-18.09,16.62-18.09c4.56,0,8.31,1.47,10.79,4.15V110.41h8.51V162H372Zm.4-13.94c0-6.7-4.42-10.52-9.31-10.52-5.56,0-10,3.82-10,10.52s4.42,10.45,10,10.45C368,155.23,372.42,151.41,372.42,144.78Z" transform="translate(-64.83 -87.61)"/><path d="M386.15,114.9a5.23,5.23,0,0,1,5.23-5.23,5.18,5.18,0,0,1,5.16,5.23,5.19,5.19,0,0,1-10.38,0Zm9.51,12.6V162h-8.51V127.49Z" transform="translate(-64.83 -87.61)"/><path d="M410.81,127.49V131c1.61-2.28,4.89-4.35,10.45-4.35,8.78,0,13.6,6.16,13.6,15V162h-8.51V142.64c0-5.49-2.61-8.38-7.64-8.38-4.56,0-7.91,2.88-7.91,8.38V162H402.3V127.49Z" transform="translate(-64.83 -87.61)"/><path d="M439.22,143.31c0-10.12,7.17-16.55,15.81-16.55,4.29,0,7.84,1.34,10.25,3.75v-3h8.11v32.29c0,8-5.83,15.68-16.68,15.68-10.12,0-15.95-6.5-16.68-13.47h8.31c.87,3.22,3.42,5.9,8.38,5.9,5.76,0,8.71-4,8.71-8.78V156c-2.41,2.48-6.1,3.75-10.38,3.75C446.39,159.79,439.22,153.42,439.22,143.31Zm8.11,0c0,5.7,4,9.18,9.25,9.18a9.25,9.25,0,0,0,0-18.49C451.28,134,447.32,137.54,447.32,143.31Z" transform="translate(-64.83 -87.61)"/><path d="M491.88,127.49h8.64v6.83h-8.64V162h-8.51V134.33h-7.3l13.8-17h2Z" transform="translate(-64.83 -87.61)"/><path d="M500.79,144.78c0-9.45,6.63-18.09,18.29-18.09s18.29,8.64,18.29,18.09-6.63,18.16-18.29,18.16S500.79,154.29,500.79,144.78Zm8.51,0c0,6.43,4.22,10.59,9.78,10.59s9.78-4.15,9.78-10.59-4.22-10.52-9.78-10.52S509.3,138.42,509.3,144.78Z" transform="translate(-64.83 -87.61)"/><path d="M550.44,127.49V131c1.61-2.28,4.89-4.35,10.45-4.35,8.78,0,13.6,6.16,13.6,15V162H566V142.64c0-5.49-2.61-8.38-7.64-8.38-4.56,0-7.91,2.88-7.91,8.38V162h-8.51V127.49Z" transform="translate(-64.83 -87.61)"/></g></g><g id="Layer_4_copy_2" data-name="Layer 4 copy 2"><g id="new"><g class="cls-2"><g id="new-2" data-name="new"><path class="cls-3" d="M156.42,116.67c-3.9-12-15.8-22.18-28.17-22.06-11.49.11-23.78,7.89-28.13,18.71-13.91.31-24.82,6.74-27.51,18.4a26.61,26.61,0,0,0,5.87,24.23,27.73,27.73,0,0,0,27.21,8.28c12.09-3,17.38-13.19,18.24-14.72,15.15-27,26.1-31.41,37.1-31.28a17,17,0,0,1,5.26.92c9.74,3.32,16.75,11,17.93,19.93a22.75,22.75,0,0,1-2.78,13.8,23.33,23.33,0,0,1-20.9,12.27H129.8" transform="translate(-64.83 -87.61)"/></g></g></g></g></svg>