<?xml version="1.0" encoding="utf-8"?>
<!-- Generator: Adobe Illustrator 22.1.0, SVG Export Plug-In . SVG Version: 6.00 Build 0)  -->
<svg version="1.1" id="Layer_1" xmlns="http://www.w3.org/2000/svg" xmlns:xlink="http://www.w3.org/1999/xlink" x="0px" y="0px"
	 viewBox="0 0 64 64" style="enable-background:new 0 0 64 64;" xml:space="preserve">
<style type="text/css">
	.st0{fill:#FFFFFF;}
	.st1{fill:none;}
	.st2{fill:url(#SVGID_1_);}
</style>
<g>
	<path class="st0" d="M58,64H6c-3.3,0-6-2.7-6-6V6c0-3.3,2.7-6,6-6h52c3.3,0,6,2.7,6,6v52C64,61.3,61.3,64,58,64z"/>
	<g>
		<g>
			<polygon class="st1" points="34.5,42.8 31.3,47.2 49.5,51.8 58.1,38.6 57.3,27.1 37.4,11.5 11.9,11.7 1.9,39.3 17.9,52.5 
				26.4,48.5 33.3,38.8 35.7,41.1 			"/>
		</g>
		<g>
			
				<linearGradient id="SVGID_1_" gradientUnits="userSpaceOnUse" x1="31.6387" y1="50.8341" x2="31.6387" y2="19.581" gradientTransform="matrix(1 0 0 -1 0 66)">
				<stop  offset="0" style="stop-color:#4BF7CF"/>
				<stop  offset="1" style="stop-color:#248DF6"/>
			</linearGradient>
			<path class="st2" d="M44.3,46.4h-12c-1,0-1.7-0.8-1.7-1.7s0.8-1.7,1.7-1.7h12c2.4,0,4.6-1.1,6-2.9c0.2-0.3,0.4-0.6,0.6-1
				c0.8-1.4,1.1-2.9,0.9-4.4c-0.4-2.8-2.7-5.4-5.9-6.4c-0.5-0.2-1-0.3-1.5-0.3c-3.2,0-7.1,0.8-13,11.4l0,0.1
				c-1.9,3.4-4.8,5.7-8.2,6.6c-1,0.2-2,0.4-3,0.4c-3.5,0-7-1.5-9.3-4.2l0,0c-1-1.1-4.1-5-2.7-11.1c0.6-2.7,2.2-4.9,4.5-6.4
				c1.9-1.2,4.2-2,6.8-2.2c1-2,2.6-3.7,4.6-5c2.3-1.5,5-2.4,7.5-2.4c2.8,0,5.4,0.8,7.7,2.5c2.3,1.6,3.9,3.9,4.8,6.6
				c0,0.1,0,0.2,0.1,0.3c0.1,0,0.3,0,0.4,0c0.9,0,1.8,0.2,2.6,0.5c2.1,0.7,4,2,5.5,3.6c1.5,1.7,2.4,3.6,2.7,5.7
				c0.2,1.5,0.1,3.9-1.3,6.5c-0.3,0.5-0.6,1-0.9,1.4C51.1,44.8,47.8,46.4,44.3,46.4z M31.8,18.6C31.8,18.6,31.7,18.6,31.8,18.6
				c-4,0-8.1,2.8-9.5,6.3L21.9,26l-1.1,0c-4.9,0.1-8.3,2.3-9.1,5.9c-1,4.5,1.4,7.4,1.9,8l0,0c2.2,2.5,5.7,3.5,8.9,2.7
				c2.5-0.6,4.6-2.4,6-4.9l0-0.1c2.9-5.2,5.6-8.7,8.3-10.7c1.3-0.9,2.5-1.6,3.9-2C39.3,21.2,35.7,18.6,31.8,18.6z"/>
		</g>
	</g>
</g>
</svg>
