<svg xmlns="http://www.w3.org/2000/svg" xmlns:xlink="http://www.w3.org/1999/xlink" viewBox="0 0 504.36 91.61"><defs><style>.cls-1{font-size:67px;font-family:LitSans-Medium, LitSans;letter-spacing:-0.04em;}.cls-2{letter-spacing:-0.05em;}.cls-3{letter-spacing:-0.04em;}.cls-4{clip-path:url(#clip-path);}.cls-5{fill:none;stroke-linecap:round;stroke-miterlimit:10;stroke-width:14px;stroke:url(#linear-gradient);}</style><clipPath id="clip-path" transform="translate(-64.83 -87.61)"/><linearGradient id="linear-gradient" x1="64.83" y1="129.88" x2="191.39" y2="129.88" gradientUnits="userSpaceOnUse"><stop offset="0" stop-color="#4bf7cf"/><stop offset="1" stop-color="#248df6"/></linearGradient></defs><title>new logo</title><g id="Layer_9" data-name="Layer 9"><text class="cls-1" transform="translate(142.17 74.39)">Clouding<tspan class="cls-2" x="263.44" y="0">t</tspan><tspan class="cls-3" x="285.62" y="0">on</tspan></text></g><g id="Layer_4" data-name="Layer 4"><g id="new"><g class="cls-4"><g id="new-2" data-name="new"><path class="cls-5" d="M156.42,116.67c-3.9-12-15.8-22.18-28.17-22.06-11.49.11-23.78,7.89-28.13,18.71-13.91.31-24.82,6.74-27.51,18.4a26.61,26.61,0,0,0,5.87,24.23,27.73,27.73,0,0,0,27.21,8.28c12.09-3,17.38-13.19,18.24-14.72,15.15-27,26.1-31.41,37.1-31.28a17,17,0,0,1,5.26.92c9.74,3.32,16.75,11,17.93,19.93a22.75,22.75,0,0,1-2.78,13.8,23.33,23.33,0,0,1-20.9,12.27H129.8" transform="translate(-64.83 -87.61)"/></g></g></g></g></svg>