<?xml version="1.0" encoding="utf-8"?>
<!-- Generator: Adobe Illustrator 21.0.2, SVG Export Plug-In . SVG Version: 6.00 Build 0)  -->
<svg version="1.1" xmlns="http://www.w3.org/2000/svg" xmlns:xlink="http://www.w3.org/1999/xlink" x="0px" y="0px"
	 viewBox="0 0 498.7 119.3" style="enable-background:new 0 0 498.7 119.3;" xml:space="preserve">
<style type="text/css">
	.st0{clip-path:url(#SVGID_1_);}
	.st1{fill:none;stroke:url(#SVGID_4_);stroke-width:14;stroke-linecap:round;stroke-miterlimit:10;}
	.st2{display:none;}
	.st3{display:inline;}
	.st4{font-family:'NexaBold';}
	.st5{font-size:75px;}
	.st6{letter-spacing:-1;}
	.st7{clip-path:url(#SVGID_5_);}
	.st8{fill:none;stroke:url(#SVGID_6_);stroke-width:14;stroke-linecap:round;stroke-miterlimit:10;}
</style>
<g id="approved_logo_copy">
	<g>
		<g>
			<g>
				<path d="M215.5,80.4c-5.4,5.3-12.4,7.8-19.9,7.8c-19.5,0-27.7-13.4-27.8-27.1c-0.1-13.7,8.8-27.7,27.8-27.7
					c7.1,0,13.9,2.7,19.3,8l-6.6,6.4c-3.4-3.4-8.1-4.9-12.7-4.9c-12.7,0-18.1,9.4-18.1,18.2c0.1,8.7,5.1,17.8,18.1,17.8
					c4.6,0,9.7-1.9,13.2-5.3L215.5,80.4z"/>
				<path d="M226.8,34.6V87h-9.1V34.6H226.8z"/>
				<path d="M269.6,68.5c0,10.6-7.3,19.3-19.3,19.3c-12,0-19.2-8.6-19.2-19.3c0-10.6,7.3-19.3,19.1-19.3
					C262,49.3,269.6,58,269.6,68.5z M240.3,68.5c0,5.6,3.4,10.9,10,10.9c6.7,0,10-5.3,10-10.9c0-5.5-3.9-11-10-11
					C243.7,57.6,240.3,63,240.3,68.5z"/>
				<path d="M283.3,50v19.3c0,5.6,3.1,9.9,8.9,9.9c5.6,0,9.4-4.7,9.4-10.3V50h9.1v37h-8.2l-0.6-5c-3.8,3.8-7.3,5.5-12.5,5.5
					c-8.8,0-15.3-6.7-15.3-18.1V50H283.3z"/>
				<path d="M355.3,34.6V87h-8.5l-0.6-5.1c-2.8,4.4-7.4,5.9-11.9,5.9c-10.9,0-19-7.2-19-19.3c0-12.7,8-19.3,18.8-19.3
					c3.9,0,10,2.1,12.1,5.9V34.6H355.3z M324.4,68.5c0,6.4,4.6,10.9,10.5,10.9c5.8,0,10.7-4.2,10.7-10.9c0-6.5-5-10.8-10.7-10.8
					C329,57.7,324.4,61.8,324.4,68.5z"/>
				<path d="M398.6,50L376,102.4h-10l6.9-16L358.1,50h10.6l5.6,16l3.5,10.4l3.8-10.2l6.7-16.2H398.6z"/>
				<path d="M409.3,71.8c0.6,4.6,4.6,7.9,11,7.9c3.4,0,7.8-1.3,9.9-3.5L436,82c-3.9,4-10.3,6-15.9,6c-12.7,0-20.3-7.9-20.3-19.7
					c0-11.2,7.7-19.4,19.6-19.4c12.4,0,20.1,7.6,18.7,22.9H409.3z M429.3,64.2c-0.6-4.8-4.3-7.2-9.6-7.2c-4.9,0-9,2.4-10.3,7.2
					H429.3z"/>
				<path d="M472.5,50h8.8v37h-8.6l-0.5-5.4c-2.1,4.4-7.9,6.5-12,6.5c-11,0.1-19-6.7-19-19.6c0-12.7,8.5-19.4,19.3-19.3
					c5,0,9.7,2.3,11.8,6L472.5,50z M450.4,68.5c0,7,4.9,11.2,10.9,11.2c14.4,0,14.4-22.4,0-22.4C455.2,57.3,450.4,61.4,450.4,68.5z"
					/>
			</g>
		</g>
		<g id="new_4_">
			<defs>
				<polygon id="SVGID_3_" points="95.8,83.8 85.7,96.9 141.3,110.7 163.6,76.7 161.4,47 109.8,6.8 26.6,11.7 17.3,78.5 58.9,112.5 
					67.3,103 87.8,77.5 102.3,77.2 				"/>
			</defs>
			<clipPath id="SVGID_1_">
				<use xlink:href="#SVGID_3_"  style="overflow:visible;"/>
			</clipPath>
			<g id="new_5_" class="st0">
				<linearGradient id="SVGID_4_" gradientUnits="userSpaceOnUse" x1="22.4231" y1="53.9198" x2="148.9804" y2="53.9198">
					<stop  offset="0" style="stop-color:#4BF7CF"/>
					<stop  offset="1" style="stop-color:#248DF6"/>
				</linearGradient>
				<path class="st1" d="M114,40.7c-3.9-12-15.8-22.2-28.2-22.1c-11.5,0.1-23.8,7.9-28.1,18.7c-13.9,0.3-24.8,6.7-27.5,18.4
					c-3.4,14.7,5.4,23.7,5.9,24.2c6.9,7.8,17.7,10.6,27.2,8.3c12.1-3,17.4-13.2,18.2-14.7c15.1-27,26.1-31.4,37.1-31.3
					c2.3,0,4.1,0.5,5.3,0.9c9.7,3.3,16.7,11,17.9,19.9c0.9,6.9-1.9,12.2-2.8,13.8c-0.6,1.1-1.3,2.1-2,3.1
					c-4.4,5.9-11.5,9.2-18.9,9.2H87.4"/>
			</g>
		</g>
	</g>
</g>
<g id="approved_logo" class="st2">
	<g class="st3">
		<text transform="matrix(1 0 0 1 162.7911 89.9789)" class="st4 st5 st6">Cloudyea</text>
		<g id="new_2_">
			<defs>
				<polygon id="SVGID_2_" points="93.1,86.8 82.9,99.9 138.5,113.7 160.8,79.7 158.6,50 107,9.8 23.8,14.7 14.6,81.5 56.1,115.5 
					64.5,106 85,80.5 99.5,80.2 				"/>
			</defs>
			<clipPath id="SVGID_5_">
				<use xlink:href="#SVGID_2_"  style="overflow:visible;"/>
			</clipPath>
			<g id="new_3_" class="st7">
				<linearGradient id="SVGID_6_" gradientUnits="userSpaceOnUse" x1="19.6355" y1="56.9198" x2="146.1928" y2="56.9198">
					<stop  offset="0" style="stop-color:#4BF7CF"/>
					<stop  offset="1" style="stop-color:#248DF6"/>
				</linearGradient>
				<path class="st8" d="M111.2,43.7c-3.9-12-15.8-22.2-28.2-22.1c-11.5,0.1-23.8,7.9-28.1,18.7C41,40.7,30.1,47.1,27.4,58.8
					C24,73.5,32.9,82.5,33.3,83c6.9,7.8,17.7,10.6,27.2,8.3c12.1-3,17.4-13.2,18.2-14.7c15.1-27,26.1-31.4,37.1-31.3
					c2.3,0,4.1,0.5,5.3,0.9c9.7,3.3,16.7,11,17.9,19.9c0.9,6.9-1.9,12.2-2.8,13.8c-0.6,1.1-1.3,2.1-2,3.1
					c-4.4,5.9-11.5,9.2-18.9,9.2H84.6"/>
			</g>
		</g>
	</g>
</g>
</svg>
