<?xml version="1.0" standalone="no"?>
<!DOCTYPE svg PUBLIC "-//W3C//DTD SVG 20010904//EN"
 "http://www.w3.org/TR/2001/REC-SVG-20010904/DTD/svg10.dtd">
<svg version="1.0" xmlns="http://www.w3.org/2000/svg"
 width="505.000000pt" height="93.000000pt" viewBox="0 0 505.000000 93.000000"
 preserveAspectRatio="xMidYMid meet">
<metadata>
Created by potrace 1.16, written by Peter Selinger 2001-2019
</metadata>
<g transform="translate(0.000000,93.000000) scale(0.100000,-0.100000)"
fill="#000000" stroke="none">
<path d="M1900 440 l0 -260 45 0 45 0 0 260 0 260 -45 0 -45 0 0 -260z"/>
<path d="M3040 604 l0 -95 -22 15 c-35 25 -128 21 -168 -6 -62 -43 -75 -70
-75 -163 0 -93 12 -120 76 -163 30 -20 42 -23 99 -18 36 3 91 5 123 5 l57 0 0
260 0 261 -45 0 -45 0 0 -96z m-35 -166 c50 -44 49 -127 -1 -167 -35 -28 -77
-26 -111 3 -25 21 -28 31 -28 81 0 50 3 60 28 81 35 30 78 31 112 2z"/>
<path d="M1594 661 c-49 -23 -107 -88 -122 -140 -15 -49 -15 -143 0 -193 16
-55 79 -123 133 -143 69 -27 169 -18 231 21 27 16 50 36 51 44 1 8 -14 28 -33
44 l-35 29 -29 -28 c-23 -22 -42 -29 -83 -33 -47 -4 -57 -1 -86 24 -39 32 -71
95 -71 139 0 43 32 107 69 138 43 36 104 37 155 2 20 -14 38 -25 40 -25 2 0
16 16 31 35 23 31 25 38 13 52 -42 51 -185 70 -264 34z"/>
<path d="M4129 553 l-72 -88 36 -3 37 -3 0 -140 0 -139 45 0 45 0 0 140 0 140
45 0 c45 0 45 0 45 35 0 35 0 35 -45 35 l-45 0 0 55 c0 30 -4 55 -9 55 -6 0
-42 -39 -82 -87z"/>
<path d="M2130 533 c-127 -48 -151 -254 -39 -334 34 -24 107 -35 163 -25 72
14 136 98 136 181 0 74 -50 150 -113 174 -29 11 -121 14 -147 4z m132 -101
c27 -25 31 -36 31 -77 0 -41 -4 -52 -31 -77 -40 -35 -81 -36 -119 -4 -25 21
-28 31 -28 81 0 50 3 60 28 81 38 32 79 31 119 -4z"/>
<path d="M3452 524 c-12 -8 -22 -10 -22 -5 0 6 -20 11 -45 11 l-45 0 0 -175 0
-175 45 0 45 0 0 115 c0 110 1 117 25 140 31 32 74 33 103 2 20 -21 22 -34 22
-140 l0 -117 45 0 45 0 0 131 c0 146 -10 183 -59 212 -37 22 -128 23 -159 1z"/>
<path d="M3812 530 c-67 -16 -112 -80 -112 -160 0 -101 52 -160 146 -168 35
-3 63 1 84 12 l32 16 -6 -32 c-10 -49 -33 -68 -82 -68 -34 0 -47 5 -63 26 -17
21 -26 25 -66 22 l-45 -3 22 -45 c27 -53 89 -90 153 -90 56 0 125 37 150 80
18 31 20 56 23 223 l4 187 -45 0 c-25 0 -47 -4 -49 -10 -2 -6 -19 -4 -43 5
-45 16 -56 16 -103 5z m87 -81 c33 -12 61 -52 61 -89 0 -32 -53 -80 -88 -80
-38 0 -78 32 -85 67 -7 38 19 90 51 102 15 5 27 10 28 10 1 1 15 -4 33 -10z"/>
<path d="M4410 533 c-127 -48 -151 -254 -39 -334 34 -24 107 -35 163 -25 72
14 136 98 136 181 0 74 -50 150 -113 174 -29 11 -121 14 -147 4z m132 -101
c27 -25 31 -36 31 -77 0 -41 -4 -52 -31 -77 -40 -35 -81 -36 -119 -4 -25 21
-28 31 -28 81 0 50 3 60 28 81 38 32 79 31 119 -4z"/>
<path d="M4822 524 c-12 -8 -22 -10 -22 -5 0 6 -20 11 -45 11 l-45 0 0 -175 0
-175 45 0 45 0 0 115 c0 110 1 117 25 140 31 32 74 33 103 2 20 -21 22 -34 22
-140 l0 -117 45 0 45 0 0 131 c0 146 -10 183 -59 212 -37 22 -128 23 -159 1z"/>
<path d="M2430 402 c0 -104 3 -133 18 -161 24 -45 74 -71 137 -71 63 0 113 26
137 71 15 28 18 57 18 161 l0 128 -45 0 -45 0 0 -110 c0 -119 -11 -157 -46
-166 -65 -16 -84 21 -84 166 l0 110 -45 0 -45 0 0 -128z"/>
<path d="M3190 355 l0 -175 45 0 45 0 0 175 0 175 -45 0 -45 0 0 -175z"/>
</g>
</svg>
