<svg id="Layer_1" data-name="Layer 1" xmlns="http://www.w3.org/2000/svg" viewBox="0 0 512 420"><defs><style>.cls-1{fill:#7b878d;}</style></defs><title>aws</title><path class="cls-1" d="M162.38,174.9A43.48,43.48,0,0,0,164,187.6a77.15,77.15,0,0,0,4.57,10.27,6.23,6.23,0,0,1,1,3.28c0,1.43-.86,2.86-2.71,4.28l-9,6a6.9,6.9,0,0,1-3.71,1.28,6.52,6.52,0,0,1-4.28-2,44.31,44.31,0,0,1-5.14-6.7c-1.43-2.43-2.85-5.14-4.42-8.42q-16.7,19.69-42,19.69c-12,0-21.54-3.42-28.54-10.27s-10.56-16-10.56-27.4c0-12.13,4.28-22,13-29.4s20.26-11.13,35-11.13a113.63,113.63,0,0,1,15.13,1.14c5.28.72,10.7,1.86,16.41,3.14V130.94c0-10.84-2.29-18.4-6.71-22.83-4.57-4.42-12.27-6.56-23.26-6.56a65.15,65.15,0,0,0-15.41,1.85,114,114,0,0,0-15.41,4.86,41.63,41.63,0,0,1-5,1.85,8.57,8.57,0,0,1-2.28.43c-2,0-3-1.43-3-4.42v-7c0-2.28.29-4,1-5a10.66,10.66,0,0,1,4-3,81.73,81.73,0,0,1,18-6.42A86.71,86.71,0,0,1,112.87,82c17,0,29.39,3.85,37.39,11.56,7.84,7.7,11.84,19.4,11.84,35.1V174.9Zm-57.93,21.69a46.34,46.34,0,0,0,14.7-2.57,31.72,31.72,0,0,0,13.55-9.14,22.44,22.44,0,0,0,4.85-9.13A51,51,0,0,0,139,163.34v-6a121.06,121.06,0,0,0-13.13-2.42,107.6,107.6,0,0,0-13.41-.86c-9.56,0-16.55,1.86-21.26,5.71s-7,9.28-7,16.41c0,6.71,1.71,11.7,5.28,15.13S97.88,196.59,104.45,196.59ZM219,212c-2.57,0-4.28-.43-5.43-1.43s-2.14-2.85-3-5.56L177.08,94.7A25.21,25.21,0,0,1,175.8,89c0-2.28,1.14-3.57,3.42-3.57h14c2.71,0,4.56.43,5.56,1.43s2,2.85,2.86,5.57l24,94.46,22.26-94.46c.71-2.86,1.57-4.71,2.71-5.57a9.79,9.79,0,0,1,5.71-1.43H267.7c2.71,0,4.56.43,5.7,1.43s2.14,2.85,2.72,5.57L298.66,188l24.69-95.6c.86-2.86,1.85-4.71,2.85-5.57a9.29,9.29,0,0,1,5.57-1.43H345c2.28,0,3.57,1.15,3.57,3.57a14.51,14.51,0,0,1-.29,2.28,20.09,20.09,0,0,1-1,3.57L312.93,205.15c-.85,2.85-1.85,4.71-3,5.56a9.14,9.14,0,0,1-5.43,1.43H292.24c-2.71,0-4.57-.43-5.71-1.43s-2.14-2.85-2.71-5.7L261.7,113l-22,91.9c-.72,2.86-1.57,4.71-2.71,5.71s-3.14,1.43-5.71,1.43Zm183.36,3.85a94.48,94.48,0,0,1-22-2.57c-7.14-1.71-12.7-3.57-16.41-5.71-2.29-1.28-3.85-2.71-4.43-4a10.1,10.1,0,0,1-.85-4v-7.27c0-3,1.14-4.43,3.28-4.43a8,8,0,0,1,2.57.43c.86.29,2.14.86,3.57,1.43a77.55,77.55,0,0,0,15.69,5,85.88,85.88,0,0,0,17,1.71c9,0,16-1.57,20.84-4.71a15.35,15.35,0,0,0,7.42-13.55,13.92,13.92,0,0,0-3.85-10c-2.57-2.71-7.42-5.14-14.42-7.42l-20.69-6.42c-10.42-3.28-18.12-8.14-22.83-14.56a34,34,0,0,1-7.13-20.69A31.76,31.76,0,0,1,364,103.26a36.67,36.67,0,0,1,10.27-11.7,45.35,45.35,0,0,1,14.84-7.42,62.28,62.28,0,0,1,18-2.43,73,73,0,0,1,9.56.57c3.29.43,6.28,1,9.28,1.57,2.85.72,5.56,1.43,8.13,2.29a30.65,30.65,0,0,1,6,2.57,12.46,12.46,0,0,1,4.28,3.56A7.75,7.75,0,0,1,445.64,97v6.71c0,3-1.14,4.57-3.28,4.57a14.9,14.9,0,0,1-5.42-1.72,65.32,65.32,0,0,0-27.4-5.56c-8.13,0-14.56,1.28-19,4s-6.71,6.85-6.71,12.7a13.51,13.51,0,0,0,4.28,10.14c2.86,2.71,8.14,5.42,15.7,7.84l20.26,6.43c10.28,3.28,17.7,7.84,22.12,13.69a32.28,32.28,0,0,1,6.57,20,36.81,36.81,0,0,1-3.71,16.56,38.39,38.39,0,0,1-10.42,12.55,45.8,45.8,0,0,1-15.84,8A67.8,67.8,0,0,1,402.4,215.85Z"/><path class="cls-1" d="M429.37,285.2c-46.94,34.68-115.15,53.09-173.8,53.09-82.2,0-156.26-30.4-212.2-80.91-4.42-4-.42-9.42,4.86-6.28,60.5,35.1,135.13,56.36,212.33,56.36,52.09,0,109.31-10.84,162-33.1C430.37,270.79,437.08,279.49,429.37,285.2Z"/><path class="cls-1" d="M448.92,262.94c-6-7.7-39.67-3.71-54.94-1.85-4.56.57-5.27-3.43-1.14-6.43,26.83-18.83,70.92-13.41,76.06-7.13s-1.43,50.52-26.54,71.63c-3.85,3.29-7.56,1.57-5.85-2.71C442.22,302.33,454.92,270.5,448.92,262.94Z"/></svg>