<svg id="Layer_1" data-name="Layer 1" xmlns="http://www.w3.org/2000/svg" viewBox="0 0 512 420"><defs><style>.cls-1{fill:#7b878d;}</style></defs><title>docean</title><g id="_Group_" data-name="&lt;Group&gt;"><g id="_Group_2" data-name="&lt;Group&gt;"><g id="_Group_3" data-name="&lt;Group&gt;"><g id="g1889"><g id="_Group_4" data-name="&lt;Group&gt;"><g id="_Group_5" data-name="&lt;Group&gt;"><path id="_Path_" data-name="&lt;Path&gt;" class="cls-1" d="M256,271.69V224.37c50.09,0,89-49.67,69.74-102.39a70.89,70.89,0,0,0-42.21-42.06c-52.71-19.1-102.39,19.65-102.39,69.74H134C134,69.82,211.17,7.55,294.88,33.71A118.15,118.15,0,0,1,372,110.77C398.1,194.49,335.84,271.69,256,271.69Z"/></g><path id="_Path_2" data-name="&lt;Path&gt;" class="cls-1" d="M209,177.47h47.18v47.18H209Z"/><path id="_Path_3" data-name="&lt;Path&gt;" class="cls-1" d="M172.84,260.76V224.65H209v36.11Z"/><path id="_Path_4" data-name="&lt;Path&gt;" class="cls-1" d="M172.84,224.65h-30.3v-30.3h30.3Z"/></g></g></g></g><g id="_Group_6" data-name="&lt;Group&gt;"><path id="_Compound_Path_" data-name="&lt;Compound Path&gt;" class="cls-1" d="M54.26,319.57c-6.08-4.29-13.83-6.37-22.69-6.37H12.2v61.58H31.71c8.86,0,16.6-2.22,22.69-6.78a24.5,24.5,0,0,0,7.89-9.83,36.73,36.73,0,0,0,2.77-14.53,36.06,36.06,0,0,0-2.77-14.39A22.32,22.32,0,0,0,54.26,319.57Zm-30.71,4h6.08c6.78,0,12.32,1.38,16.61,4,4.7,2.91,7,8.31,7,16.05,0,8-2.35,13.7-7,16.75-4,2.62-9.55,4-16.47,4H23.55Z"/><path id="_Path_5" data-name="&lt;Path&gt;" class="cls-1" d="M78.48,312.37a6.92,6.92,0,0,0-4.85,1.94A6.38,6.38,0,0,0,71.7,319a7,7,0,0,0,1.93,4.85,6.71,6.71,0,0,0,4.85,1.93,7.17,7.17,0,0,0,4.84-1.93A6.68,6.68,0,0,0,85.26,319a6.35,6.35,0,0,0-1.94-4.7A7.13,7.13,0,0,0,78.48,312.37Z"/><path id="_Path_6" data-name="&lt;Path&gt;" class="cls-1" d="M72.94,331.33H83.87v43.45H72.94Z"/><path id="_Compound_Path_2" data-name="&lt;Compound Path&gt;" class="cls-1" d="M123.58,334.93c-3.32-2.91-6.91-4.71-10.93-4.71a19.53,19.53,0,0,0-14.94,6.23,21.75,21.75,0,0,0-5.95,15.63,22,22,0,0,0,5.81,15.5,20.16,20.16,0,0,0,15,6.09,16.83,16.83,0,0,0,10.79-3.46v1c0,3.6-1,6.36-2.91,8.3a10.64,10.64,0,0,1-7.88,2.91c-5,0-8.17-1.94-12-7.2L93,382.39l.13.27a26.62,26.62,0,0,0,7.34,6.51,22.14,22.14,0,0,0,12.17,3.18c6.51,0,11.76-1.94,15.64-6s5.81-9.27,5.81-15.78V331.19H123.31v3.74Zm-2.9,25.73a9.35,9.35,0,0,1-7.47,3.18,9.57,9.57,0,0,1-7.47-3.18c-1.94-2.21-2.77-5-2.77-8.44a13,13,0,0,1,2.77-8.58,9.16,9.16,0,0,1,7.47-3.18,9.63,9.63,0,0,1,7.47,3.18,12.63,12.63,0,0,1,2.9,8.58A12.24,12.24,0,0,1,120.68,360.66Z"/><path id="_Path_7" data-name="&lt;Path&gt;" class="cls-1" d="M143.65,331.33h10.93v43.45H143.65Z"/><path id="_Path_8" data-name="&lt;Path&gt;" class="cls-1" d="M149.18,312.37a6.88,6.88,0,0,0-4.84,1.94,6.35,6.35,0,0,0-1.94,4.7,6.92,6.92,0,0,0,1.94,4.85,6.67,6.67,0,0,0,4.84,1.93,7.17,7.17,0,0,0,4.84-1.93A6.68,6.68,0,0,0,156,319a6.35,6.35,0,0,0-1.94-4.7A6.88,6.88,0,0,0,149.18,312.37Z"/><path id="_Path_9" data-name="&lt;Path&gt;" class="cls-1" d="M178.52,319.57h-10.8v11.76H161.5v10h6.22v18q0,8.5,3.32,12c2.22,2.35,6.23,3.46,11.76,3.46,1.8,0,3.6,0,5.26-.14h.56v-10l-3.74.13c-2.63,0-4.29-.41-5.12-1.38s-1.24-2.91-1.24-5.81V341.15h10.23v-10H178.52Z"/><path id="_Path_10" data-name="&lt;Path&gt;" class="cls-1" d="M240,313.06h10.93v61.72H240Z"/><path id="_Path_11" data-name="&lt;Path&gt;" class="cls-1" d="M361.3,359.28a30,30,0,0,1-5.54,5.12,10.48,10.48,0,0,1-5.67,1.52,9.72,9.72,0,0,1-7.89-3.6,13.59,13.59,0,0,1-3.18-9.13,13.34,13.34,0,0,1,3.18-9.13,10.15,10.15,0,0,1,7.89-3.6c3.46,0,7.19,2.22,10.38,6l7.19-6.92c-4.7-6.09-10.65-9-17.85-9a21.34,21.34,0,0,0-15.5,6.5c-4.28,4.29-6.36,9.69-6.36,16.19a22.46,22.46,0,0,0,6.36,16.19,21.11,21.11,0,0,0,15.5,6.5,22.07,22.07,0,0,0,18.68-9.68Z"/><path id="_Compound_Path_3" data-name="&lt;Compound Path&gt;" class="cls-1" d="M406.26,337.42A15.06,15.06,0,0,0,400,332.3a20.87,20.87,0,0,0-9-1.94,18.48,18.48,0,0,0-14.8,6.64,25.06,25.06,0,0,0-5.54,16.33c0,6.64,2.08,12,5.95,16.19q6,6.23,15.78,6.22a22,22,0,0,0,18-8.85l.27-.28-7.19-6.92c-.69.83-1.66,1.66-2.49,2.49a16,16,0,0,1-3.19,2.36,12,12,0,0,1-5.53,1.24,10.5,10.5,0,0,1-7.47-2.63,10.05,10.05,0,0,1-3.18-6.64h28.91l.14-4a30.47,30.47,0,0,0-1.1-8,23.45,23.45,0,0,0-3.33-7.05Zm-23.93,10.24a10.35,10.35,0,0,1,2.9-5.12,7.71,7.71,0,0,1,5.68-2.22c2.63,0,4.7.69,6.08,2.22a8.24,8.24,0,0,1,2.22,5.12Z"/><path id="_Compound_Path_4" data-name="&lt;Compound Path&gt;" class="cls-1" d="M448.19,334.65c-3.32-2.77-7.89-4.29-13.56-4.29a22.6,22.6,0,0,0-10.1,2.35,18,18,0,0,0-7.47,6.92l.14.14,7.05,6.64c2.91-4.57,6.09-6.23,10.38-6.23a8.48,8.48,0,0,1,5.67,1.8,6.12,6.12,0,0,1,2.22,4.71v2.07a27.68,27.68,0,0,0-8-1.24c-5.39,0-9.82,1.24-13.14,3.73s-5,6.23-5,10.93a12.14,12.14,0,0,0,4.28,9.83,16.18,16.18,0,0,0,10.52,3.6c4.15,0,8-1.66,11.62-4.57v3.6h10.8V346.69c-.42-5.12-2.08-9.27-5.4-12Zm-19.37,23.52a9.52,9.52,0,0,1,5.26-1.24,26.39,26.39,0,0,1,8.3,1.52v4.29a13.27,13.27,0,0,1-9.41,3.32,7,7,0,0,1-4.43-1.25,3.93,3.93,0,0,1-1.52-3.18,3.82,3.82,0,0,1,1.8-3.46Z"/><path id="_Path_12" data-name="&lt;Path&gt;" class="cls-1" d="M495.23,335.48c-3-3.46-7.33-5.12-12.73-5.12-4.29,0-7.88,1.25-10.51,3.74v-2.63H461.33v43.31h10.94V350.84c0-3.32.83-5.95,2.35-7.75a8,8,0,0,1,6.5-2.77,6.86,6.86,0,0,1,5.67,2.49,10.42,10.42,0,0,1,2.08,6.78v25.19H499.8V349.59c0-5.95-1.52-10.79-4.57-14.11Z"/><path id="_Compound_Path_5" data-name="&lt;Compound Path&gt;" class="cls-1" d="M226.25,334.65c-3.32-2.77-7.89-4.29-13.56-4.29a22.63,22.63,0,0,0-10.1,2.35,18,18,0,0,0-7.47,6.92l.14.14,7.05,6.64c2.91-4.57,6.09-6.23,10.38-6.23a8.48,8.48,0,0,1,5.67,1.8,6.12,6.12,0,0,1,2.22,4.71v2.07a27.68,27.68,0,0,0-8-1.24c-5.39,0-9.82,1.24-13.14,3.73s-5,6.23-5,10.93a12.12,12.12,0,0,0,4.29,9.83,16.13,16.13,0,0,0,10.51,3.6c4.15,0,8-1.66,11.63-4.57v3.6h10.79V346.69c-.42-5.12-2.08-9.27-5.4-12Zm-19.37,23.52a9.54,9.54,0,0,1,5.26-1.24,26.39,26.39,0,0,1,8.3,1.52v4.29a13.25,13.25,0,0,1-9.41,3.32,7,7,0,0,1-4.43-1.25,4,4,0,0,1-1.52-3.18,3.84,3.84,0,0,1,1.8-3.46Z"/><path id="_Compound_Path_6" data-name="&lt;Compound Path&gt;" class="cls-1" d="M290.59,375.74a31.82,31.82,0,1,1,31.83-31.82A31.82,31.82,0,0,1,290.59,375.74Zm0-52.44a20.62,20.62,0,1,0,20.62,20.62A20.68,20.68,0,0,0,290.59,323.3Z"/></g></g></svg>