<?xml version="1.0" encoding="utf-8"?>
<!-- Generator: Adobe Illustrator 22.1.0, SVG Export Plug-In . SVG Version: 6.00 Build 0)  -->
<svg version="1.1" id="Layer_1" xmlns="http://www.w3.org/2000/svg" xmlns:xlink="http://www.w3.org/1999/xlink" x="0px" y="0px"
	 viewBox="0 0 181 28" style="enable-background:new 0 0 181 28;" xml:space="preserve">
<style type="text/css">
	.st0{fill:#EA4335;}
	.st1{fill:#4285F4;}
	.st2{fill:#34A853;}
	.st3{fill:#FBBC05;}
	.st4{fill:#5F6368;}
</style>
<path class="st0" d="M21.9,7.4h1l2.9-2.8l0.1-1.2C20.5-1.3,12.4-0.8,7.8,4.5C6.5,6,5.5,7.7,5,9.6c0.3-0.1,0.7-0.2,1-0.1l5.7-0.9
	c0,0,0.3-0.5,0.4-0.4C14.7,5.4,18.9,5,21.9,7.4L21.9,7.4z"/>
<path class="st1" d="M29.8,9.6c-0.7-2.4-2-4.6-3.9-6.2l-4,4c1.7,1.4,2.7,3.5,2.6,5.6v0.7c2,0,3.6,1.6,3.6,3.6s-1.6,3.6-3.6,3.6h-7.1
	l-0.7,0.7v4.3l0.7,0.7h7.1c5.1,0,9.3-4.1,9.3-9.2C33.9,14.2,32.3,11.3,29.8,9.6z"/>
<path class="st2" d="M10.3,26.5h7.1v-5.7h-7.1c-0.5,0-1-0.1-1.5-0.3l-1,0.3l-2.9,2.8l-0.3,1C6.3,25.8,8.2,26.5,10.3,26.5z"/>
<path class="st3" d="M10.3,8C5.1,8,1,12.2,1,17.3c0,2.9,1.4,5.5,3.6,7.3l4.1-4.1C7,19.7,6.2,17.6,7,15.8s2.9-2.6,4.7-1.8
	c0.8,0.4,1.4,1,1.8,1.8l4.1-4.1C15.9,9.3,13.1,8,10.3,8z"/>
<path class="st4" d="M52.8,22.5c-2.5,0-4.9-0.9-6.6-2.7c-1.8-1.7-2.8-4.1-2.8-6.5c0-2.5,1-4.8,2.8-6.5C47.9,5,50.3,4,52.8,4
	c2.4,0,4.6,0.9,6.3,2.6l-1.8,1.8c-1.2-1.2-2.9-1.8-4.5-1.8c-1.8,0-3.5,0.7-4.7,2c-1.3,1.3-2,3-1.9,4.8c0,1.8,0.7,3.5,1.9,4.7
	c2.6,2.6,6.7,2.6,9.4,0.1c0.8-0.9,1.3-2,1.4-3.1h-6v-2.6h8.5c0.1,0.5,0.1,1,0.1,1.6c0.1,2.2-0.7,4.3-2.2,5.9
	C57.5,21.6,55.2,22.6,52.8,22.5z M72.5,20.8c-2.4,2.3-6.1,2.3-8.5,0c-1.1-1.1-1.8-2.7-1.7-4.3c0-1.6,0.6-3.1,1.7-4.3
	c2.4-2.3,6.1-2.3,8.5,0c1.1,1.1,1.8,2.7,1.7,4.3C74.3,18.2,73.7,19.7,72.5,20.8L72.5,20.8z M65.9,19.1c1.2,1.3,3.3,1.4,4.6,0.2
	c0.1,0,0.1-0.1,0.2-0.2c0.7-0.7,1-1.6,1-2.6c0-1-0.3-1.9-1-2.6c-1.3-1.3-3.3-1.4-4.7-0.1c0,0-0.1,0.1-0.1,0.1c-0.7,0.7-1,1.6-1,2.6
	C64.9,17.5,65.2,18.5,65.9,19.1L65.9,19.1z M85.6,20.8c-2.4,2.3-6.1,2.3-8.5,0c-1.1-1.1-1.8-2.7-1.7-4.3c0-1.6,0.6-3.1,1.7-4.3
	c2.4-2.3,6.1-2.3,8.5,0c1.1,1.1,1.8,2.7,1.7,4.3C87.3,18.2,86.7,19.7,85.6,20.8z M79,19.1c1.2,1.3,3.3,1.4,4.6,0.2
	c0.1,0,0.1-0.1,0.2-0.2c0.7-0.7,1-1.6,1-2.6c0-1-0.3-1.9-1-2.6c-1.3-1.3-3.3-1.4-4.7-0.1c0,0-0.1,0.1-0.1,0.1c-0.7,0.7-1,1.6-1,2.6
	C77.9,17.5,78.3,18.5,79,19.1L79,19.1z M94.1,27.8c-1.2,0-2.4-0.3-3.3-1.1c-0.8-0.6-1.5-1.5-1.9-2.5l2.3-1c0.2,0.6,0.6,1.1,1.1,1.5
	c0.5,0.4,1.2,0.6,1.9,0.6c0.9,0.1,1.7-0.3,2.3-0.9c0.6-0.7,0.9-1.7,0.8-2.6v-0.9h-0.1c-0.8,0.9-1.9,1.4-3.1,1.4c-1.5,0-3-0.6-4-1.7
	c-1.1-1.1-1.7-2.6-1.7-4.2c0-1.6,0.6-3.1,1.7-4.2c1-1.1,2.5-1.8,4-1.8c0.6,0,1.3,0.1,1.8,0.4c0.5,0.2,0.9,0.5,1.3,0.9h0.1V11h2.5
	v10.6c0.1,1.7-0.4,3.4-1.6,4.6C97.1,27.3,95.6,27.9,94.1,27.8z M94.3,20.2c0.9,0,1.7-0.3,2.3-1c0.6-0.7,0.9-1.6,0.9-2.6
	c0-1-0.3-1.9-0.9-2.6c-0.6-0.7-1.4-1-2.3-1c-0.9,0-1.7,0.3-2.3,1c-0.7,0.7-1,1.6-1,2.6c0,1,0.3,1.9,1,2.6
	C92.5,19.8,93.4,20.2,94.3,20.2z M104.2,4.7v17.5h-2.6V4.7L104.2,4.7z M111.3,22.5c-1.6,0-3.1-0.6-4.2-1.7c-1.1-1.1-1.7-2.7-1.7-4.2
	c-0.1-1.6,0.5-3.1,1.6-4.3c1-1.1,2.5-1.7,4-1.7c0.7,0,1.4,0.1,2,0.4c0.6,0.2,1.1,0.6,1.5,1c0.4,0.4,0.7,0.8,1,1.2
	c0.2,0.4,0.4,0.8,0.6,1.2l0.3,0.7l-8,3.3c0.5,1.1,1.6,1.9,2.9,1.8c1.2,0,2.3-0.6,2.9-1.6l2,1.4c-0.5,0.7-1.2,1.3-1.9,1.8
	C113.5,22.2,112.4,22.5,111.3,22.5z M108,16.4l5.3-2.2c-0.2-0.4-0.5-0.7-0.8-0.9c-0.4-0.2-0.9-0.4-1.4-0.4c-0.8,0-1.6,0.4-2.2,0.9
	C108.3,14.5,107.9,15.4,108,16.4z"/>
<path class="st4" d="M130.1,22.5c-4.6,0.1-8.3-3.5-8.4-8.1c0-0.1,0-0.2,0-0.3c-0.1-4.5,3.5-8.3,8-8.4c0.1,0,0.2,0,0.3,0
	c2.3-0.1,4.5,0.9,5.9,2.6l-1.4,1.4c-1.1-1.4-2.7-2.1-4.5-2.1c-1.7,0-3.3,0.6-4.4,1.8c-1.2,1.2-1.9,2.9-1.8,4.7
	c-0.1,1.7,0.6,3.4,1.8,4.7c1.2,1.2,2.8,1.8,4.4,1.8c1.9,0,3.8-0.8,5-2.3l1.4,1.4c-0.8,0.9-1.7,1.6-2.8,2.1
	C132.7,22.3,131.4,22.5,130.1,22.5z"/>
<path class="st4" d="M140.4,22.1h-2.1V6h2.1V22.1z"/>
<path class="st4" d="M143.8,12.4c2.3-2.2,5.9-2.2,8.2,0c1.1,1.1,1.6,2.6,1.6,4.2c0,1.6-0.5,3.1-1.6,4.2c-2.3,2.2-5.9,2.2-8.2,0
	c-1.1-1.1-1.6-2.6-1.6-4.2C142.2,15.1,142.8,13.6,143.8,12.4z M145.4,19.5c1.3,1.4,3.5,1.5,4.9,0.1c0,0,0.1-0.1,0.1-0.1
	c0.7-0.8,1.1-1.8,1.1-2.9c0-1.1-0.3-2.1-1.1-2.9c-1.3-1.4-3.5-1.5-4.9-0.1c0,0-0.1,0.1-0.1,0.1c-0.7,0.8-1.1,1.8-1.1,2.9
	C144.3,17.7,144.6,18.7,145.4,19.5L145.4,19.5z"/>
<path class="st4" d="M165.1,22.1h-2v-1.5H163c-0.4,0.6-0.9,1.1-1.5,1.4c-0.6,0.4-1.3,0.6-2.1,0.5c-1.2,0.1-2.3-0.4-3.1-1.3
	c-0.8-1-1.1-2.2-1.1-3.4v-6.8h2.1v6.4c0,2.1,0.9,3.1,2.7,3.1c0.8,0,1.6-0.3,2.1-1c0.5-0.7,0.8-1.5,0.8-2.4v-6.1h2.1V22.1z"/>
<path class="st4" d="M172.1,22.5c-1.4,0-2.8-0.6-3.7-1.7c-1-1.1-1.6-2.6-1.6-4.2c0-1.5,0.5-3,1.6-4.2c0.9-1.1,2.3-1.7,3.7-1.7
	c0.8,0,1.6,0.2,2.3,0.5c0.6,0.3,1.1,0.8,1.5,1.4h0.1l-0.1-1.5V6h2.1v16.1h-2v-1.5h-0.1c-0.4,0.6-0.9,1-1.5,1.4
	C173.6,22.3,172.9,22.5,172.1,22.5z M172.4,20.6c0.9,0,1.9-0.4,2.5-1.1c0.7-0.8,1.1-1.8,1-2.9c0.1-1.1-0.3-2.1-1-2.9
	c-1.3-1.4-3.4-1.5-4.8-0.2c-0.1,0.1-0.2,0.1-0.2,0.2c-0.7,0.8-1.1,1.8-1,2.9c-0.1,1.1,0.3,2.1,1,2.9
	C170.6,20.2,171.5,20.6,172.4,20.6z"/>
</svg>
