<svg id="Layer_1" data-name="Layer 1" xmlns="http://www.w3.org/2000/svg" viewBox="0 0 512 420"><defs><style>.cls-1,.cls-2,.cls-3{fill:#7b878d;}.cls-1{opacity:0.5;}.cls-3{opacity:0.2;}</style></defs><title>gcp</title><path class="cls-1" d="M341.6,45.7l-.09.75-1.41,12-30,30H299.69a75,75,0,0,0-102.64,7.86,1.23,1.23,0,0,0-.94.28,91.49,91.49,0,0,0-19-1.87A97,97,0,0,0,123.69,111a7.2,7.2,0,0,0-2.06.66,135.29,135.29,0,0,1,220-66Z"/><path class="cls-2" d="M383,111.62a135.38,135.38,0,0,0-40.84-65.85L299.93,88a75,75,0,0,1,27.54,59.52V155a37.57,37.57,0,0,1,0,75.14H252.33l-7.49,7.59V282.8l7.49,7.49h75.14A97.72,97.72,0,0,0,383,111.62Z"/><path class="cls-2" d="M252.25,229.74v60.17H177.12a97.44,97.44,0,0,1-59-19.65l.09-.47,2.53-10.11,30.31-30,10.57-3.28h.1a37.72,37.72,0,0,0,15.44,3.37Z"/><path class="cls-3" d="M255,133l-43.6,43.6a37.17,37.17,0,0,0-18.71-18.71,37.6,37.6,0,1,0-31.07,68.48L151,229.65l-30.31,30-2.53,10.11-.09.09a97.72,97.72,0,0,1,59-175.15,91.49,91.49,0,0,1,19,1.87A97.36,97.36,0,0,1,255,133Z"/><polygon class="cls-3" points="161.59 226.38 118.17 269.79 120.7 259.68 151.01 229.65 161.59 226.38"/><path class="cls-2" d="M49.5,389.13A32.52,32.52,0,0,1,26,379.46a32.32,32.32,0,0,1,0-46.52,32.53,32.53,0,0,1,23.55-9.85,31.59,31.59,0,0,1,22.59,9.1l-6.36,6.46a22.85,22.85,0,0,0-16.23-6.42,22.64,22.64,0,0,0-16.77,7.13,24,24,0,0,0,0,33.68,23.94,23.94,0,0,0,33.4.39A18.93,18.93,0,0,0,71,362.34H49.61v-9.13H79.9a33.86,33.86,0,0,1-7.46,26.61A30.35,30.35,0,0,1,49.5,389.13Zm70.43-6.06a21.85,21.85,0,0,1-30.22,0,21.72,21.72,0,0,1,0-30.33,21.87,21.87,0,0,1,30.22,0,21.67,21.67,0,0,1,0,30.33Zm-23.55-6a11.56,11.56,0,0,0,16.34.54l.54-.54a13.73,13.73,0,0,0,0-18.45,11.75,11.75,0,0,0-16.6-.35l-.35.35a13.65,13.65,0,0,0,0,18.45Zm70,6a21.85,21.85,0,0,1-30.22,0,21.72,21.72,0,0,1,0-30.33,21.85,21.85,0,0,1,30.22,0,21.72,21.72,0,0,1,0,30.33Zm-23.55-6a11.56,11.56,0,0,0,16.34.54q.29-.27.54-.54a13.7,13.7,0,0,0,0-18.45,11.75,11.75,0,0,0-16.6-.35l-.35.35a13.65,13.65,0,0,0,0,18.45Zm54.09,31.07A18.68,18.68,0,0,1,185,404.4a21.84,21.84,0,0,1-6.92-8.77l8.13-3.39a13.77,13.77,0,0,0,4,5.31A10.18,10.18,0,0,0,197,399.8a10.69,10.69,0,0,0,8.31-3.21,13,13,0,0,0,3-9.28v-3.07h-.32a13.6,13.6,0,0,1-11.17,4.82,19.34,19.34,0,0,1-14.27-6.21,21.49,21.49,0,0,1,0-30,19.3,19.3,0,0,1,14.27-6.24,15.25,15.25,0,0,1,6.57,1.46,13,13,0,0,1,4.63,3.39h.33v-3.39h8.84v38a22.15,22.15,0,0,1-5.67,16.59A19.93,19.93,0,0,1,196.92,408.18Zm.64-27.4a10.41,10.41,0,0,0,8.07-3.56,13.2,13.2,0,0,0,3.24-9.14,13.53,13.53,0,0,0-3.24-9.31,10.39,10.39,0,0,0-8.07-3.57,11.07,11.07,0,0,0-8.35,3.57,13,13,0,0,0-3.56,9.24,12.74,12.74,0,0,0,3.56,9.13A11,11,0,0,0,197.56,380.78Zm35.29-55.3v62.37h-9.32V325.48Zm25.54,63.65a20.22,20.22,0,0,1-15-6.1,20.7,20.7,0,0,1-6-15.13,20.93,20.93,0,0,1,5.82-15.27,19.09,19.09,0,0,1,14.27-5.95,17.81,17.81,0,0,1,7.13,1.39,16.66,16.66,0,0,1,5.46,3.57,24.57,24.57,0,0,1,3.57,4.31,25.15,25.15,0,0,1,2.1,4.18l1,2.42-28.54,11.74a10.69,10.69,0,0,0,10.27,6.42,12.15,12.15,0,0,0,10.45-5.88l7.14,4.81a23.46,23.46,0,0,1-6.85,6.5A19.4,19.4,0,0,1,258.39,389.13Zm-11.91-21.87,19-7.88a6.57,6.57,0,0,0-3-3.25,9.7,9.7,0,0,0-4.88-1.25,11.06,11.06,0,0,0-7.67,3.39A11.28,11.28,0,0,0,246.48,367.26Z"/><path class="cls-2" d="M325.43,389.13a29.4,29.4,0,0,1-29.9-28.88c0-.4,0-.8,0-1.19A29.4,29.4,0,0,1,324.24,329h1.19a26.65,26.65,0,0,1,21.16,9.42l-5.14,5a19.46,19.46,0,0,0-16-7.31,21.8,21.8,0,0,0-15.87,6.35,24.62,24.62,0,0,0,0,33.25A21.76,21.76,0,0,0,325.46,382a22.65,22.65,0,0,0,17.84-8.35l5.14,5.14a28.06,28.06,0,0,1-9.88,7.53A30.19,30.19,0,0,1,325.43,389.13Z"/><path class="cls-2" d="M362.25,387.85h-7.39V330.23h7.39Z"/><path class="cls-2" d="M374.31,353.17a20.65,20.65,0,0,1,29.11,0,22.52,22.52,0,0,1,0,30,20.91,20.91,0,0,1-29.11-30Zm5.49,25.33a12.45,12.45,0,0,0,17.6.49c.17-.16.33-.32.49-.49a15.92,15.92,0,0,0,0-20.69,12.45,12.45,0,0,0-17.6-.49c-.17.16-.33.32-.49.49a15.8,15.8,0,0,0,0,20.65Z"/><path class="cls-2" d="M450.05,387.85h-7.14v-5.46h-.21a13.76,13.76,0,0,1-5.21,4.92,14.43,14.43,0,0,1-7.31,2A13.88,13.88,0,0,1,419,384.78a17.82,17.82,0,0,1-3.81-12.06V348.46h7.38v22.9q0,11,9.74,11a9.05,9.05,0,0,0,7.49-3.57,13.38,13.38,0,0,0,2.89-8.53V348.46h7.39Z"/><path class="cls-2" d="M475.13,389.13a17.31,17.31,0,0,1-13.2-6,23,23,0,0,1,0-29.89,17.31,17.31,0,0,1,13.2-6,16.61,16.61,0,0,1,8.06,1.92,13.68,13.68,0,0,1,5.36,4.82h.32l-.32-5.46V330.23h7.38v57.62h-7.14v-5.46h-.32a13.73,13.73,0,0,1-5.35,4.82A16.83,16.83,0,0,1,475.13,389.13Zm1.21-6.74a11.77,11.77,0,0,0,8.89-3.85,16.93,16.93,0,0,0,0-20.77,12.07,12.07,0,0,0-17-.8,10.06,10.06,0,0,0-.8.8,16.77,16.77,0,0,0,0,20.69A11.75,11.75,0,0,0,476.34,382.39Z"/></svg>