<svg xmlns="http://www.w3.org/2000/svg" xmlns:xlink="http://www.w3.org/1999/xlink" viewBox="0 0 160 160"><defs><style>.cls-1{fill:#fff;}.cls-2{fill:url(#linear-gradient);}</style><linearGradient id="linear-gradient" x1="80" y1="29.97" x2="80" y2="130.03" gradientUnits="userSpaceOnUse"><stop offset="0" stop-color="#4bf7cf"/><stop offset="1" stop-color="#248df6"/></linearGradient></defs><title>logo-mini-bg-white</title><g id="work"><g id="Logo"><rect class="cls-1" width="160" height="160"/><path class="cls-2" d="M119.6,130H82.07a6.61,6.61,0,1,1,0-13.21H119.6a21.9,21.9,0,0,0,19.7-11.63,21.26,21.26,0,0,0,2.67-13c-1.09-8.36-8-15.88-17.49-19.15a13.93,13.93,0,0,0-4.36-.78c-9.56-.12-21.28,2.49-39.45,35.12l-.1.18c-6,10.89-15.34,18.39-26.35,21.14a40.47,40.47,0,0,1-39.76-12.2v0C11.28,113,1.32,100.25,5.78,80.79,9.34,65.24,22.87,54.94,41.53,53.24a44.34,44.34,0,0,1,14.56-15.6,45.2,45.2,0,0,1,24-7.67,40.79,40.79,0,0,1,24.63,8A42,42,0,0,1,120.06,59h.23a26.8,26.8,0,0,1,8.48,1.49c14.46,5,24.54,16.43,26.3,29.93a34.28,34.28,0,0,1-4.12,21A35.11,35.11,0,0,1,119.6,130ZM80.51,43.19h-.26C68.56,43.3,56.14,51.59,52,62.06l-1.62,4.06-4.37.1c-14.66.32-24.87,6.87-27.31,17.52-3.1,13.53,4.06,22.21,5.53,23.81l.15.17A27.15,27.15,0,0,0,51,115.88c7.4-1.85,13.78-7.06,18-14.68l.14-.25C78.19,84.67,86.81,73.6,95.49,67.1a40.41,40.41,0,0,1,11.24-6A28.73,28.73,0,0,0,80.51,43.19Z"/></g></g></svg>