<svg xmlns="http://www.w3.org/2000/svg" xmlns:xlink="http://www.w3.org/1999/xlink" width="334.45" height="200" viewBox="0 0 334.45 200"><defs><clipPath id="b"><rect width="334.45" height="200"/></clipPath></defs><g id="a" clip-path="url(#b)"><g transform="translate(-1.668 -1.1)"><path d="M94.523,73.736a33.655,33.655,0,0,0,1.224,9.9,59.54,59.54,0,0,0,3.56,8.009,4.839,4.839,0,0,1,.779,2.558c0,1.112-.667,2.225-2.113,3.337l-7.008,4.672a5.333,5.333,0,0,1-2.892,1,5.118,5.118,0,0,1-3.337-1.557,34.412,34.412,0,0,1-4-5.228c-1.112-1.891-2.225-4-3.448-6.563q-13.014,15.35-32.7,15.35c-9.344,0-16.8-2.67-22.247-8.009S14.1,84.749,14.1,75.85c0-9.455,3.337-17.13,10.122-22.914s15.8-8.676,27.253-8.676a88.071,88.071,0,0,1,11.791.89c4.116.556,8.343,1.446,12.792,2.447v-8.12c0-8.454-1.78-14.349-5.228-17.8-3.56-3.448-9.566-5.117-18.131-5.117a50.61,50.61,0,0,0-12.013,1.446A88.632,88.632,0,0,0,28.672,21.79a31.916,31.916,0,0,1-3.893,1.446,6.823,6.823,0,0,1-1.78.334c-1.557,0-2.336-1.112-2.336-3.448V14.671a7.039,7.039,0,0,1,.779-3.893,8.329,8.329,0,0,1,3.115-2.336A64.039,64.039,0,0,1,38.572,3.436,67.439,67.439,0,0,1,55.924,1.322c13.237,0,22.914,3,29.144,9.01C91.186,16.339,94.3,25.46,94.3,37.7v36.04ZM49.361,90.644a36.05,36.05,0,0,0,11.457-2,24.787,24.787,0,0,0,10.567-7.119A17.656,17.656,0,0,0,75.168,74.4a39.933,39.933,0,0,0,1.112-9.677V60.054a92.893,92.893,0,0,0-10.234-1.891A83.816,83.816,0,0,0,55.591,57.5c-7.453,0-12.9,1.446-16.574,4.449s-5.451,7.23-5.451,12.792c0,5.228,1.335,9.121,4.116,11.791C40.351,89.309,44.245,90.644,49.361,90.644Zm89.321,12.013c-2,0-3.337-.334-4.227-1.112-.89-.667-1.669-2.225-2.336-4.338L105.98,11.222a19.485,19.485,0,0,1-1-4.449c0-1.78.89-2.781,2.67-2.781h10.9c2.113,0,3.56.334,4.338,1.112.89.667,1.557,2.225,2.225,4.338L143.8,83.08,161.152,9.443c.556-2.225,1.224-3.671,2.113-4.338a7.652,7.652,0,0,1,4.449-1.112h8.9c2.113,0,3.56.334,4.449,1.112.89.667,1.669,2.225,2.113,4.338L200.752,83.97,220,9.443A9.539,9.539,0,0,1,222.22,5.1a7.257,7.257,0,0,1,4.338-1.112H236.9a2.473,2.473,0,0,1,2.781,2.781,11.1,11.1,0,0,1-.222,1.78,15.829,15.829,0,0,1-.779,2.781L211.875,97.318q-1,3.337-2.336,4.338a7.116,7.116,0,0,1-4.227,1.112h-9.566c-2.113,0-3.56-.334-4.449-1.112a7.886,7.886,0,0,1-2.113-4.449L171.942,25.46,154.812,97.1c-.556,2.225-1.224,3.671-2.113,4.449s-2.447,1.112-4.449,1.112Zm142.937,3a73.61,73.61,0,0,1-17.13-2c-5.562-1.335-9.9-2.781-12.792-4.449a8.015,8.015,0,0,1-3.448-3.115,7.852,7.852,0,0,1-.667-3.115V87.307c0-2.336.89-3.448,2.558-3.448a6.3,6.3,0,0,1,2,.334c.667.222,1.669.667,2.781,1.112A60.5,60.5,0,0,0,267.159,89.2,66.8,66.8,0,0,0,280.4,90.533c7.008,0,12.458-1.224,16.24-3.671a11.978,11.978,0,0,0,5.784-10.567,10.833,10.833,0,0,0-3-7.786c-2-2.113-5.784-4-11.235-5.784l-16.129-5.006c-8.12-2.558-14.127-6.34-17.8-11.346a26.5,26.5,0,0,1-5.562-16.129,24.756,24.756,0,0,1,3-12.347,28.6,28.6,0,0,1,8.009-9.121,35.3,35.3,0,0,1,11.568-5.784A48.481,48.481,0,0,1,285.29,1.1a55.84,55.84,0,0,1,7.453.445c2.558.334,4.894.779,7.23,1.224,2.225.556,4.338,1.112,6.34,1.78a24.276,24.276,0,0,1,4.672,2,9.619,9.619,0,0,1,3.337,2.781,5.994,5.994,0,0,1,1,3.671V18.23c0,2.336-.89,3.56-2.558,3.56a11.571,11.571,0,0,1-4.227-1.335,50.888,50.888,0,0,0-21.357-4.338c-6.34,0-11.346,1-14.794,3.115s-5.228,5.339-5.228,9.9a10.5,10.5,0,0,0,3.337,7.9c2.225,2.113,6.34,4.227,12.236,6.118l15.8,5.006c8.009,2.558,13.793,6.118,17.241,10.679A25.171,25.171,0,0,1,320.885,74.4a28.6,28.6,0,0,1-2.892,12.9,29.916,29.916,0,0,1-8.12,9.789,35.856,35.856,0,0,1-12.347,6.229A52.894,52.894,0,0,1,281.62,105.661Z" transform="translate(1.397 0)" fill="#232432"/><g transform="translate(1.668 125.785)"><path d="M304.04,146.459c-36.6,27.03-89.766,41.379-135.484,41.379-64.071,0-121.8-23.693-165.406-63.07-3.448-3.115-.334-7.341,3.782-4.894,47.164,27.364,105.339,43.938,165.517,43.938A330.3,330.3,0,0,0,298.7,138.005C304.818,135.224,310.046,142.01,304.04,146.459Z" transform="translate(-1.668 -112.524)" fill="#232432" fill-rule="evenodd"/><path d="M291.83,129.775c-4.672-6.007-30.923-2.892-42.825-1.446-3.559.445-4.116-2.67-.89-5.006,20.912-14.683,55.284-10.456,59.288-5.562,4,5.006-1.112,39.377-20.69,55.84-3,2.558-5.9,1.224-4.561-2.113C286.6,160.476,296.5,135.67,291.83,129.775Z" transform="translate(25.78 -113.192)" fill="#232432" fill-rule="evenodd"/></g></g></g></svg>