<svg xmlns="http://www.w3.org/2000/svg" xmlns:xlink="http://www.w3.org/1999/xlink" width="258.21" height="200" viewBox="0 0 258.21 200"><defs><clipPath id="b"><rect width="258.21" height="200"/></clipPath></defs><g id="a" clip-path="url(#b)"><g transform="translate(664.931 -319.854)"><g transform="translate(-664.93 319.854)"><path d="M100.04,185.812c33.174-5.86,60.574-10.71,60.889-10.776l.572-.121-31.32-37.254c-17.226-20.49-31.32-37.333-31.32-37.43,0-.184,32.34-89.242,32.522-89.559.061-.106,22.069,37.891,53.35,92.108,29.286,50.758,53.43,92.609,53.655,93l.408.713-99.537-.013-99.537-.013,60.317-10.655ZM-19.415,174.451c0-.052,14.758-25.671,32.795-56.929L46.174,60.688,84.393,28.614c21.02-17.64,38.275-32.095,38.344-32.121a6.719,6.719,0,0,1-.614,1.547c-.407.877-19.082,40.933-41.5,89.013l-40.76,87.419-29.639.037c-16.3.02-29.639-.006-29.639-.058Z" transform="translate(19.415 3.507)" fill="#232432"/></g></g></g></svg>