<svg xmlns="http://www.w3.org/2000/svg" xmlns:xlink="http://www.w3.org/1999/xlink" width="200" height="200" viewBox="0 0 200 200"><defs><clipPath id="b"><rect width="200" height="200"/></clipPath></defs><g id="a" clip-path="url(#b)"><g transform="translate(-67 -175.225)"><g transform="translate(67 175.225)"><path d="M166.958,375.225V336.466c41.026,0,72.872-40.686,57.119-83.865a57.925,57.925,0,0,0-34.566-34.566c-43.179-15.64-83.865,16.093-83.865,57.119H67c0-65.392,63.238-116.39,131.8-94.971a96.776,96.776,0,0,1,63.125,63.125C283.348,311.987,232.463,375.225,166.958,375.225Z" transform="translate(-67 -175.225)" fill="#232432"/><path d="M155.3,317.6h-34v-34h34Z" transform="translate(-58.033 -157.33)" fill="#232432"/><path d="M121.3,343.8H95.1V317.6h26.2Z" transform="translate(-62.601 -151.7)" fill="#232432"/><path d="M95.1,317.6H73.2V295.7H95.1Z" transform="translate(-67 -156.89)" fill="#232432"/></g></g></g></svg>