<svg xmlns="http://www.w3.org/2000/svg" xmlns:xlink="http://www.w3.org/1999/xlink" width="248.52" height="200" viewBox="0 0 248.52 200"><defs><clipPath id="b"><rect width="248.52" height="200"/></clipPath></defs><g id="a" clip-path="url(#b)"><g transform="translate(-0.045 -0.144)"><path d="M131.717,55.219h7.58l21.6-21.6,1.061-9.171A97.1,97.1,0,0,0,4,71.818a11.749,11.749,0,0,1,7.58-.455l43.2-7.125s2.2-3.638,3.335-3.411a53.891,53.891,0,0,1,73.75-5.609h-.152Z" transform="translate(26.024 0)" fill="#232432"/><path d="M114.888,50.657A97.323,97.323,0,0,0,85.554,3.36L55.236,33.679A53.891,53.891,0,0,1,75.019,76.428v5.382a26.984,26.984,0,0,1,0,53.967H21.052l-5.382,5.457V173.6l5.382,5.382H75.019A70.188,70.188,0,0,0,114.888,50.657Z" transform="translate(102.809 21.161)" fill="#232432"/><path d="M46.03,66.1H100v-43.2H46.03A26.826,26.826,0,0,1,34.894,20.47l-7.585,2.347L5.555,44.42,3.66,52A69.809,69.809,0,0,0,46.03,66.1Z" transform="translate(23.787 133.741)" fill="#232432"/><path d="M69.817,8a70.188,70.188,0,0,0-42.37,125.822l31.3-31.3a26.984,26.984,0,1,1,35.7-35.7l31.3-31.3A70.112,70.112,0,0,0,69.817,8Z" transform="translate(0 51.69)" fill="#232432"/></g></g></svg>