<svg xmlns="http://www.w3.org/2000/svg" viewBox="0 0 180 28.2"><defs><style>.cls-1{fill:#ea4335;}.cls-2{fill:#4285f4;}.cls-3{fill:#34a853;}.cls-4{fill:#fbbc05;}.cls-5{fill:#5f6368;}</style></defs><title>gcp</title><g id="Layer_2" data-name="Layer 2"><g id="Layer_1-2" data-name="Layer 1"><path class="cls-1" d="M21.17,7.4h.11l-.07-.06,4-4V3.26A13,13,0,0,0,4,9.62l.21-.07A9.41,9.41,0,0,1,9.37,8a8.69,8.69,0,0,1,1.84.17.09.09,0,0,1,.08,0,7.22,7.22,0,0,1,9.9-.75Z"/><path class="cls-2" d="M29.22,9.62a13,13,0,0,0-3.94-6.35L21.21,7.34a7.25,7.25,0,0,1,2.66,5.74v.72c4.83,0,4.83,7.25,0,7.25H16.61v5.75h0l0,0h7.25A9.42,9.42,0,0,0,29.22,9.62Z"/><path class="cls-3" d="M9.37,26.81h7.24V21H9.37a3.66,3.66,0,0,1-1.49-.32L3.69,24.88v0a9.42,9.42,0,0,0,5.69,1.89Z"/><path class="cls-4" d="M9.37,8A9.42,9.42,0,0,0,3.68,24.89l4.2-4.21a3.62,3.62,0,1,1,4.8-4.79l4.2-4.2A9.38,9.38,0,0,0,9.37,8Z"/><path class="cls-5" d="M52.66,22.76A9.3,9.3,0,0,1,45.94,20a9,9,0,0,1-2.82-6.64,9,9,0,0,1,2.82-6.64,9.28,9.28,0,0,1,6.72-2.81,9,9,0,0,1,6.44,2.6L57.29,8.36a6.55,6.55,0,0,0-4.63-1.83,6.48,6.48,0,0,0-4.79,2,6.66,6.66,0,0,0-2,4.83,6.66,6.66,0,0,0,2,4.77,6.83,6.83,0,0,0,9.53.11,5.33,5.33,0,0,0,1.39-3.16h-6.1V12.51h8.64a7.73,7.73,0,0,1,.1,1.59,8.17,8.17,0,0,1-2.23,6,8.64,8.64,0,0,1-6.54,2.65ZM72.75,21a6.23,6.23,0,0,1-8.62,0,5.76,5.76,0,0,1-1.76-4.32,5.81,5.81,0,0,1,1.76-4.33,6.25,6.25,0,0,1,8.62,0,5.85,5.85,0,0,1,1.76,4.33A5.81,5.81,0,0,1,72.74,21ZM66,19.33a3.31,3.31,0,0,0,4.82,0,3.64,3.64,0,0,0,1-2.62,3.67,3.67,0,0,0-1-2.64,3.36,3.36,0,0,0-4.84,0,3.59,3.59,0,0,0-1,2.64,3.61,3.61,0,0,0,1,2.62ZM86,21a6.23,6.23,0,0,1-8.62,0,5.76,5.76,0,0,1-1.76-4.32,5.77,5.77,0,0,1,1.76-4.33,6.23,6.23,0,0,1,8.62,0,5.81,5.81,0,0,1,1.76,4.33A5.8,5.8,0,0,1,86,21Zm-6.72-1.7a3.31,3.31,0,0,0,4.82,0,3.65,3.65,0,0,0,1-2.62,3.68,3.68,0,0,0-1-2.64,3.36,3.36,0,0,0-4.84,0,3.64,3.64,0,0,0-1,2.64,3.66,3.66,0,0,0,1,2.62ZM94.71,28.2a5.31,5.31,0,0,1-3.39-1.08,6.32,6.32,0,0,1-2-2.51l2.33-1a3.79,3.79,0,0,0,1.15,1.51,2.79,2.79,0,0,0,1.9.64,3.05,3.05,0,0,0,2.37-.91,3.75,3.75,0,0,0,.85-2.65v-.87h-.1a3.88,3.88,0,0,1-3.18,1.37A5.51,5.51,0,0,1,90.59,21a5.83,5.83,0,0,1-1.74-4.26,5.87,5.87,0,0,1,1.74-4.3,5.54,5.54,0,0,1,4.07-1.78,4.33,4.33,0,0,1,1.87.42,3.72,3.72,0,0,1,1.32,1H98v-1h2.52V21.89a6.33,6.33,0,0,1-1.62,4.73,5.72,5.72,0,0,1-4.14,1.58Zm.18-7.82a2.93,2.93,0,0,0,2.3-1,3.77,3.77,0,0,0,.93-2.6,3.87,3.87,0,0,0-.93-2.66,2.93,2.93,0,0,0-2.3-1,3.16,3.16,0,0,0-2.38,1,3.74,3.74,0,0,0-1,2.63,3.67,3.67,0,0,0,1,2.61,3.14,3.14,0,0,0,2.38,1Zm10.07,2H102.3V4.61H105V22.4Zm7.28.36A5.77,5.77,0,0,1,108,21a5.89,5.89,0,0,1-1.72-4.31,6,6,0,0,1,1.66-4.36,5.46,5.46,0,0,1,4.07-1.7,5.25,5.25,0,0,1,2,.4,4.74,4.74,0,0,1,1.56,1,7.09,7.09,0,0,1,1,1.23,6.64,6.64,0,0,1,.6,1.19l.27.69-8.14,3.35a3.05,3.05,0,0,0,2.93,1.83,3.49,3.49,0,0,0,3-1.68l2,1.37a6.77,6.77,0,0,1-2,1.86,5.54,5.54,0,0,1-3.07.85Zm-3.4-6.24,5.41-2.24a1.82,1.82,0,0,0-.84-.93A2.7,2.7,0,0,0,112,13a3.13,3.13,0,0,0-2.19,1,3.24,3.24,0,0,0-1,2.56Z"/><path class="cls-5" d="M131.37,22.76a8.37,8.37,0,0,1-8.53-8.58,8.39,8.39,0,0,1,8.53-8.58,7.61,7.61,0,0,1,6,2.69l-1.47,1.42a5.53,5.53,0,0,0-4.56-2.08,6.26,6.26,0,0,0-4.53,1.81A6.39,6.39,0,0,0,125,14.18a6.38,6.38,0,0,0,1.84,4.74,6.26,6.26,0,0,0,4.53,1.82,6.48,6.48,0,0,0,5.09-2.38l1.47,1.46A8,8,0,0,1,135.11,22a8.61,8.61,0,0,1-3.74.79Z"/><polygon class="cls-5" points="139.76 22.4 141.86 22.4 141.86 5.96 139.76 5.96 139.76 22.4 139.76 22.4"/><path class="cls-5" d="M145.3,12.51a5.79,5.79,0,0,1,9.94,4.27,5.79,5.79,0,1,1-11.56,0,6,6,0,0,1,1.62-4.27Zm1.57,7.22a3.55,3.55,0,0,0,5.16,0,4,4,0,0,0,1.09-2.95,4,4,0,0,0-1.09-3,3.55,3.55,0,0,0-5.16,0,4.07,4.07,0,0,0-1.08,3,4.07,4.07,0,0,0,1.09,2.94Z"/><path class="cls-5" d="M166.91,22.4h-2V20.84h-.06a4,4,0,0,1-1.49,1.4,4.14,4.14,0,0,1-2.09.56,4,4,0,0,1-3.19-1.28A5.08,5.08,0,0,1,157,18.08V11.16h2.1v6.53c0,2.1.93,3.15,2.78,3.15a2.62,2.62,0,0,0,2.14-1,3.76,3.76,0,0,0,.82-2.43V11.16h2.11V22.4Z"/><path class="cls-5" d="M174.06,22.76A4.91,4.91,0,0,1,170.3,21a6.13,6.13,0,0,1-1.58-4.26,6.15,6.15,0,0,1,1.58-4.27,5,5,0,0,1,3.76-1.72,4.72,4.72,0,0,1,2.3.56,3.82,3.82,0,0,1,1.53,1.37H178l-.09-1.56V6H180V22.4h-2V20.84h-.09a3.82,3.82,0,0,1-1.53,1.37,4.74,4.74,0,0,1-2.28.55Zm.35-1.92a3.4,3.4,0,0,0,2.54-1.1,4.12,4.12,0,0,0,1-3,4.11,4.11,0,0,0-1-3,3.44,3.44,0,0,0-5.09,0,4,4,0,0,0-1,2.95,4,4,0,0,0,1,2.95,3.36,3.36,0,0,0,2.55,1.12Z"/></g></g></svg>